<svg width="24" height="20" viewBox="0 0 24 20" fill="none" xmlns="http://www.w3.org/2000/svg">
    <path d="M10.3862 17.4031C10.3862 16.5578 10.5899 15.7225 10.5973 14.8706C10.6099 13.4082 10.4298 11.965 10.2846 10.513C10.1852 9.51891 10.2312 8.51026 10.0697 7.52325C9.89725 6.46958 9.77047 5.33134 9.75311 4.26384C9.7412 3.53147 9.60516 2.81862 9.48736 2.09872C9.4635 1.95293 9.40728 1.80864 9.40138 1.66101C9.39731 1.55936 9.60918 2.08251 9.64759 2.14562C11.0349 4.42479 13.219 5.80741 15.3926 7.23014C16.3819 7.87771 17.3219 8.55729 18.2612 9.27411C19.1061 9.91895 19.9631 10.497 20.8445 11.0953C21.2181 11.3489 21.5935 11.5932 21.9544 11.8613C22.0592 11.9392 22.2659 12.0068 22.3296 12.1271C22.371 12.2054 20.9883 12.1922 20.8992 12.1896C16.8126 12.0711 12.7571 11.6346 8.66664 11.6346C6.26669 11.6346 3.86353 11.705 1.46781 11.705C0.783208 11.705 1.40011 11.5133 1.76483 11.3532C3.09238 10.7708 4.47324 10.3253 5.88403 10.001C8.79768 9.33122 11.6286 8.20705 14.3022 6.88231C15.3949 6.34091 16.2534 5.42176 17.3154 4.81489C18.3955 4.19771 19.6206 3.76414 20.5514 2.94288C20.7931 2.72959 20.9503 2.47323 20.7194 2.93507C20.216 3.94192 19.703 4.94072 19.1327 5.91309C18.0008 7.84317 16.4304 9.52339 14.9119 11.1617C14.5907 11.5083 14.3767 11.949 14.0873 12.3225C13.8495 12.6293 13.5928 12.9141 13.3643 13.2292C12.7565 14.0669 12.1777 14.8699 11.6447 15.7617C11.0578 16.7434 10.1844 17.7271 9.82346 18.81" stroke="#CF0921" stroke-width="2" stroke-linecap="round"/>
</svg>
